<svg xmlns="http://www.w3.org/2000/svg" fill="none" viewBox="0 0 175 69"><g clip-path="url(#a)"><path stroke="#F2712F" stroke-width="1.527" d="M33.8391 55.238c11.0738 0 20.051-8.9772 20.051-20.051 0-11.0739-8.9772-20.051-20.051-20.051-11.0739 0-20.051 8.9771-20.051 20.051 0 11.0738 8.9771 20.051 20.051 20.051Z"/><path stroke="#F2712F" stroke-width="1.527" d="M22.4929 52.177c-3.006 1.513-5.981 1.983-7.3.856-3.309-2.818 1.461-13.83 10.647-24.571 9.186-10.741 19.324-17.17 22.633-14.352 1.378 1.179 1.357 3.779.188 7.192"/><path stroke="#F2712F" stroke-width="1.527" d="M44.9829 52.177c3.006 1.513 6.211 1.983 7.536.856 3.309-2.818-1.461-13.83-10.647-24.571-9.186-10.741-19.316-17.17-22.625-14.352-1.378 1.179-1.357 3.779-.188 7.192"/><path stroke="#F2712F" stroke-width="2.244" d="M53.4839 31.993c4.426 1.148 5.908 2.453 5.908 4.373 0 3.946-11.482 7.066-25.635 7.066-14.153 0-25.58405-2.598-25.58405-6.819 0-2.2 2.65105-3.685 6.01205-4.864"/><path stroke="#F2712F" stroke-width="2.244" d="M33.7661 67.5561c18.0288 0 32.644-14.8718 32.644-33.217 0-18.3453-14.6152-33.21703-32.644-33.21703-18.0288 0-32.64403 14.87173-32.64403 33.21703 0 18.3452 14.61523 33.217 32.64403 33.217Z"/><path fill="#F56E1E" d="m23.2759 48.214 10.62-22.41 10.631 22.41h-4.05l-6.575-13.893-6.566 13.893h-4.06Z"/><path stroke="#F2712F" stroke-width="1.497" d="m33.8959 25.804-10.62 22.41h4.06l6.565-13.893 6.577 13.893h4.05l-10.632-22.41Z"/><path fill="#F56E1E" d="M148.797 25.1811c-.026 1.6859.284 3.3603.911 4.9254.627 1.5652 1.56 2.99 2.743 4.1914 1.183 1.2014 2.593 2.1556 4.148 2.8068 1.556.6513 3.225.9867 4.911.9867 1.687 0 3.356-.3354 4.911-.9867 1.556-.6512 2.966-1.6054 4.149-2.8068 1.183-1.2014 2.115-2.6262 2.743-4.1914.627-1.5651.937-3.2395.911-4.9254.026-1.686-.284-3.3603-.911-4.9255-.628-1.5652-1.56-2.99-2.743-4.1914-1.183-1.2014-2.593-2.1555-4.149-2.8068-1.555-.6513-3.224-.9866-4.911-.9866-1.686 0-3.355.3353-4.911.9866-1.555.6513-2.965 1.6054-4.148 2.8068-1.183 1.2014-2.116 2.6262-2.743 4.1914-.627 1.5652-.937 3.2395-.911 4.9255Zm18.465 0c.052.7885-.059 1.5793-.325 2.3234s-.682 1.4257-1.222 2.0026c-.54.5768-1.193 1.0367-1.918 1.3511-.725.3144-1.506.4766-2.297.4766-.79 0-1.572-.1622-2.297-.4766-.725-.3144-1.378-.7743-1.918-1.3511-.54-.5769-.956-1.2585-1.222-2.0026-.266-.7441-.376-1.5349-.324-2.3234-.052-.7886.058-1.5794.324-2.3235.266-.7441.682-1.4257 1.222-2.0026.54-.5768 1.193-1.0367 1.918-1.3511.725-.3144 1.507-.4766 2.297-.4766.791 0 1.572.1622 2.297.4766.725.3144 1.378.7743 1.918 1.3511.54.5769.956 1.2585 1.222 2.0026.266.7441.377 1.5349.325 2.3235Zm-33.349 12.5h6.952v-18.262h6.753v-6.753h-20.451v6.753h6.753v18.266l-.007-.004Zm-21.554-5.365v-5.163h3.768c.354-.0262.71.0211 1.046.1388.335.1177.643.3033.903.5453.261.2419.468.535.611.8608.142.3259.215.6776.215 1.0331 0 .3554-.073.7071-.215 1.033-.143.3258-.35.6189-.611.8608-.26.242-.568.4276-.903.5453-.336.1177-.692.165-1.046.1389h-3.768v.007Zm0-9.926v-4.37h3.173c.302-.0268.607.0097.895.1072.288.0975.552.2538.776.459.225.2052.403.4547.526.7328.122.2781.186.5786.186.8825 0 .3038-.064.6043-.186.8824-.123.2781-.301.5277-.526.7328-.224.2052-.488.3615-.776.459-.288.0975-.593.134-.895.1073h-3.173v.007Zm-6.952 15.291h12.317c5.2 0 8.34-3.173 8.34-7.15.014-.918-.174-1.8279-.551-2.665-.377-.8371-.934-1.5807-1.631-2.178-.659-.5444-1.395-.9863-2.185-1.311.616-.3053 1.18-.707 1.67-1.19.54-.5119.971-1.1285 1.265-1.8123.295-.6838.447-1.4203.447-2.1647 0-3.611-2.975-6.555-8.142-6.555h-11.513v25.03l-.017-.004Zm-26.8572 0h7.347l1.388-4.572h7.547l1.388 4.572h7.3472l-8.5382-25.02h-7.944l-8.535 25.02Zm10.33-10.121 2.182-7.15 2.182 7.15h-4.364ZM163.343 56.284h3.194l.605-1.983h3.274l.605 1.983h3.195l-3.7-10.866h-3.444l-3.729 10.866Zm4.478-4.394.95-3.1.95 3.1h-1.9ZM153.5 56.284h3.016v-4.739l3.017 4.739h3.444l-3.789-5.522 3.444-5.344h-3.361l-2.756 4.6v-4.6h-3.017l.002 10.866Zm-11.628 0h2.672l4.05-5.95v5.95h3.022V45.431h-2.672l-4.05 5.95v-5.95h-3.017l-.005 10.853Zm-6.763-5.853v-2.247h1.294c.154-.0113.308.0093.453.0603.145.051.279.1315.391.2363.113.1048.203.2318.265.3729.061.1412.093.2935.093.4475 0 .154-.032.3063-.093.4475-.062.1411-.152.2681-.265.3729-.112.1048-.246.1853-.391.2363-.145.051-.299.0716-.453.0603h-1.294v.013Zm-3.017 5.856h3.017v-3.1h1.555c.523.0206 1.044-.0647 1.533-.2505.489-.1859.936-.4686 1.313-.8312.377-.3626.677-.7976.882-1.279.205-.4813.311-.9991.311-1.5223s-.106-1.0409-.311-1.5223c-.205-.4814-.505-.9164-.882-1.279-.377-.3626-.824-.6453-1.313-.8312-.489-.1858-1.01-.271-1.533-.2505h-4.572v10.866Zm-7.014 0h3.017v-7.936h2.933v-2.933h-8.883v2.933h2.933v7.936Zm-12.766 0h3.017v-4.742l3.017 4.739h3.444l-3.789-5.522 3.444-5.344h-3.361l-2.756 4.6v-4.6h-3.012v10.866l-.004.003Zm-9.874 0h8.278v-2.675h-5.261v-1.555h4.655v-2.589h-4.655v-1.377h5.083v-2.673h-8.1v10.869Zm-12.2229 0c.1232.0368.2489.0649.376.084.2716.055.5479.0828.825.083 1.91 0 3.173-1.294 3.361-3.444l.344-4.655h2.411v7.933h3.0169V45.431h-8.0999l-.521 6.8c-.0733.9187-.5327 1.378-1.378 1.378h-.344v2.672l.009.006Zm-11.199-3.625c.3696 1.0888 1.0662 2.037 1.9947 2.7151.9285.6782 2.0437 1.0532 3.1933 1.0739 1.0409.0295 2.0694-.2314 2.9703-.7535s1.6387-1.2847 2.1306-2.2025c.4919-.9177.7185-1.9543.6544-2.9936-.064-1.0393-.4162-2.0403-1.0171-2.8907-.6008-.8504-1.4267-1.5167-2.3849-1.9242-.9582-.4075-2.011-.5402-3.0403-.3831-1.0294.1571-1.9946.5978-2.7877 1.2726-.793.6748-1.3825 1.5571-1.7023 2.548l3.1.261c.1292-.2339.2908-.4483.48-.637.2069-.2105.454-.3773.7266-.4903.2727-.1131.5653-.1701.8604-.1677.3452-.011.6887.0523 1.0073.1854.3187.1332.605.3332.8397.5866.2044.2249.3654.4856.475.769h-3.33v2.411h3.33c-.1774.4696-.4972.8719-.9147 1.1508-.4174.2788-.9116.4201-1.4133.4042-.2917.0115-.5826-.0362-.8554-.1401-.2727-.104-.5216-.2621-.7316-.4649-.1962-.17-.359-.3752-.48-.605l-3.105.275Z"/></g><defs><clipPath id="a"><path fill="#fff" d="M0 0h174.22v68.677H0z"/></clipPath></defs></svg>