<svg xmlns="http://www.w3.org/2000/svg" fill="none" viewBox="0 0 24 24"><path fill="#6E7191" d="M12 0C5.37097 0 0 5.37097 0 12c0 6.629 5.37097 12 12 12 6.629 0 12-5.371 12-12 0-6.62903-5.371-12-12-12Zm5.8548 8.22581-1.9354 9.29029c-.1452.6774-.5323.8226-1.1129.5323l-3-2.2258-1.4517 1.4032c-.1451.1452-.2903.2903-.58061.2903l.19355-3.0484 5.56456-5.03222c.2419-.19354-.0484-.33871-.3871-.14516L8.27419 13.6452l-2.95161-.9194c-.62903-.1935-.62903-.6774.14516-.9677L17.0323 7.30645c.5322-.19355 1.0161.14516.8225.91936Z"/></svg>