<svg xmlns="http://www.w3.org/2000/svg" fill="none" viewBox="0 0 24 24"><path fill="#6E7191" d="M1.687 1.687C0 3.374 0 6.08952 0 11.52v.96c0 5.4305 0 8.146 1.687 9.833C3.374 24 6.08952 24 11.52 24h.96c5.4305 0 8.146 0 9.833-1.687C24 20.626 24 17.9105 24 12.48v-.96c0-5.43048 0-8.146-1.687-9.833C20.626 0 17.9105 0 12.48 0h-.96C6.08952 0 3.374 0 1.687 1.687ZM4.05 7.30002h2.74002C6.88002 11.88 8.89998 13.82 10.5 14.22V7.30002h2.58V11.25c1.58-.17 3.24-1.96998 3.8-3.94998h2.58c-.2111 1.02685-.6318 1.99907-1.2357 2.85598-.604.8569-1.3782 1.5799-2.2743 2.124 1.0005.4967 1.8843 1.2002 2.5928 2.0638.7085.8637 1.2256 1.8679 1.5172 2.9462h-2.84c-.2617-.9367-.7943-1.7752-1.5308-2.4103-.7365-.6351-1.6442-1.0386-2.6092-1.1597v3.57h-.31c-5.46998 0-8.59-3.75-8.72-9.98998Z"/></svg>